<svg width="24" height="25" viewBox="0 0 24 25" fill="none" xmlns="http://www.w3.org/2000/svg">
<path fill-rule="evenodd" clip-rule="evenodd" d="M12 0C12.3978 0 12.7794 0.163303 13.0607 0.453984C13.342 0.744666 13.5 1.13891 13.5 1.55V3.1C13.5 3.51109 13.342 3.90533 13.0607 4.19602C12.7794 4.4867 12.3978 4.65 12 4.65C11.6022 4.65 11.2206 4.4867 10.9393 4.19602C10.658 3.90533 10.5 3.51109 10.5 3.1V1.55C10.5 1.13891 10.658 0.744666 10.9393 0.453984C11.2206 0.163303 11.6022 0 12 0ZM18 12.4C18 14.0443 17.3679 15.6213 16.2426 16.7841C15.1174 17.9468 13.5913 18.6 12 18.6C10.4087 18.6 8.88258 17.9468 7.75736 16.7841C6.63214 15.6213 6 14.0443 6 12.4C6 10.7557 6.63214 9.17866 7.75736 8.01594C8.88258 6.85321 10.4087 6.2 12 6.2C13.5913 6.2 15.1174 6.85321 16.2426 8.01594C17.3679 9.17866 18 10.7557 18 12.4ZM17.304 20.0725L18.3645 21.1683C18.6474 21.4507 19.0263 21.6069 19.4196 21.6034C19.8129 21.5999 20.1891 21.4369 20.4672 21.1495C20.7453 20.8621 20.9031 20.4733 20.9065 20.0669C20.9099 19.6605 20.7587 19.269 20.4855 18.9766L19.425 17.8808C19.1421 17.5985 18.7632 17.4422 18.3699 17.4458C17.9766 17.4493 17.6004 17.6123 17.3223 17.8997C17.0442 18.1871 16.8864 18.5758 16.883 18.9822C16.8796 19.3886 17.0308 19.7802 17.304 20.0725ZM20.484 3.63165C20.7652 3.92232 20.9232 4.3165 20.9232 4.7275C20.9232 5.1385 20.7652 5.53268 20.484 5.82335L19.425 6.9192C19.2866 7.06724 19.1211 7.18532 18.9381 7.26656C18.7551 7.34779 18.5583 7.39055 18.3591 7.39234C18.1599 7.39413 17.9624 7.35491 17.7781 7.27697C17.5937 7.19904 17.4262 7.08395 17.2854 6.93841C17.1446 6.79288 17.0332 6.61982 16.9578 6.42933C16.8823 6.23884 16.8444 6.03474 16.8461 5.82893C16.8479 5.62312 16.8892 5.41973 16.9678 5.23062C17.0465 5.04152 17.1607 4.87048 17.304 4.7275L18.3645 3.63165C18.6458 3.34107 19.0273 3.17783 19.425 3.17783C19.8227 3.17783 20.2027 3.34107 20.484 3.63165ZM22.5 13.95C22.8978 13.95 23.2794 13.7867 23.5607 13.496C23.842 13.2053 24 12.8111 24 12.4C24 11.9889 23.842 11.5947 23.5607 11.304C23.2794 11.0133 22.8978 10.85 22.5 10.85H21C20.6022 10.85 20.2206 11.0133 19.9393 11.304C19.658 11.5947 19.5 11.9889 19.5 12.4C19.5 12.8111 19.658 13.2053 19.9393 13.496C20.2206 13.7867 20.6022 13.95 21 13.95H22.5ZM12 20.15C12.3978 20.15 12.7794 20.3133 13.0607 20.604C13.342 20.8947 13.5 21.2889 13.5 21.7V23.25C13.5 23.6611 13.342 24.0553 13.0607 24.346C12.7794 24.6367 12.3978 24.8 12 24.8C11.6022 24.8 11.2206 24.6367 10.9393 24.346C10.658 24.0553 10.5 23.6611 10.5 23.25V21.7C10.5 21.2889 10.658 20.8947 10.9393 20.604C11.2206 20.3133 11.6022 20.15 12 20.15ZM4.575 6.9192C4.71427 7.06321 4.87962 7.17747 5.06162 7.25544C5.24362 7.33342 5.4387 7.37359 5.63572 7.37366C5.83274 7.37374 6.02785 7.33371 6.2099 7.25586C6.39195 7.17802 6.55738 7.06388 6.69675 6.91997C6.83612 6.77607 6.94669 6.6052 7.02215 6.41714C7.09761 6.22907 7.13648 6.02749 7.13655 5.8239C7.13662 5.62031 7.09789 5.4187 7.02255 5.23058C6.94722 5.04246 6.83677 4.87151 6.6975 4.7275L5.6355 3.63165C5.3526 3.3493 4.97369 3.19307 4.5804 3.19661C4.1871 3.20014 3.81088 3.36315 3.53277 3.65053C3.25466 3.93791 3.09691 4.32667 3.09349 4.73308C3.09007 5.13948 3.24126 5.53102 3.5145 5.82335L4.575 6.9192ZM6.696 20.0725L5.6355 21.1683C5.3526 21.4507 4.97369 21.6069 4.5804 21.6034C4.1871 21.5999 3.81088 21.4369 3.53277 21.1495C3.25466 20.8621 3.09691 20.4733 3.09349 20.0669C3.09007 19.6605 3.24126 19.269 3.5145 18.9766L4.575 17.8808C4.8579 17.5985 5.23681 17.4422 5.6301 17.4458C6.0234 17.4493 6.39962 17.6123 6.67773 17.8997C6.95584 18.1871 7.11359 18.5758 7.11701 18.9822C7.12043 19.3886 6.96924 19.7802 6.696 20.0725ZM3 13.95C3.39782 13.95 3.77936 13.7867 4.06066 13.496C4.34196 13.2053 4.5 12.8111 4.5 12.4C4.5 11.9889 4.34196 11.5947 4.06066 11.304C3.77936 11.0133 3.39782 10.85 3 10.85H1.5C1.10218 10.85 0.720644 11.0133 0.43934 11.304C0.158035 11.5947 0 11.9889 0 12.4C0 12.8111 0.158035 13.2053 0.43934 13.496C0.720644 13.7867 1.10218 13.95 1.5 13.95H3Z" fill="#E0E0E0"/>
</svg>
