<svg width="24" height="25" viewBox="0 0 24 25" fill="none" xmlns="http://www.w3.org/2000/svg">
<path d="M24 16.9986C21.6749 18.138 19.0845 18.4827 16.574 17.9869C14.0634 17.4912 11.7519 16.1784 9.94748 14.2236C8.14301 12.2687 6.93123 9.76462 6.47359 7.04487C6.01595 4.32512 6.33417 1.51888 7.38586 -1C5.5348 -0.0937572 3.91431 1.28544 2.66341 3.01928C1.41252 4.75311 0.568559 6.78982 0.203946 8.95466C-0.160667 11.1195 -0.0350504 13.3479 0.570018 15.4486C1.17509 17.5492 2.24154 19.4596 3.6779 21.0156C5.11425 22.5717 6.87762 23.727 8.81672 24.3825C10.7558 25.038 12.8128 25.1741 14.8111 24.7791C16.8094 24.3841 18.6894 23.4698 20.2899 22.1146C21.8904 20.7595 23.1635 19.004 24 16.9986Z" fill="#737C88"/>
</svg>
