<svg width="19" height="20" viewBox="0 0 19 20" fill="none" xmlns="http://www.w3.org/2000/svg">
<path d="M18.7516 13.6162C16.9738 14.4539 14.9932 14.7073 13.0736 14.3428C11.154 13.9783 9.38669 13.0132 8.00698 11.576C6.62728 10.1388 5.70076 8.29781 5.35084 6.29827C5.00093 4.29873 5.24424 2.23559 6.04837 0.383728C4.63304 1.04999 3.39401 2.06397 2.43757 3.33868C1.48114 4.61338 0.835844 6.11076 0.55706 7.70234C0.278277 9.29392 0.374323 10.9322 0.83696 12.4766C1.2996 14.021 2.11501 15.4255 3.21325 16.5695C4.31149 17.7135 5.65976 18.5629 7.1424 19.0448C8.62504 19.5267 10.1978 19.6267 11.7257 19.3363C13.2536 19.0459 14.6911 18.3738 15.9148 17.3775C17.1385 16.3812 18.112 15.0905 18.7516 13.6162Z" fill="#737C88"/>
</svg>
